<?xml version="1.0" standalone="no"?>
<!DOCTYPE svg PUBLIC "-//W3C//DTD SVG 20010904//EN"
 "http://www.w3.org/TR/2001/REC-SVG-20010904/DTD/svg10.dtd">
<svg version="1.0" xmlns="http://www.w3.org/2000/svg"
 width="500.000000pt" height="500.000000pt" viewBox="0 0 500.000000 500.000000"
 preserveAspectRatio="xMidYMid meet">

<g transform="translate(0.000000,500.000000) scale(0.100000,-0.100000)"
fill="#000000" stroke="none">
<path d="M1005 3279 c-16 -5 -46 -14 -65 -20 -97 -29 -205 -102 -290 -196 -51
-57 -141 -224 -155 -288 -28 -129 -30 -303 -4 -384 33 -101 77 -202 114 -257
30 -44 39 -66 34 -80 -4 -10 -8 -43 -8 -73 -1 -49 2 -56 38 -92 35 -35 44 -39
88 -39 80 0 133 56 133 140 0 86 -52 140 -135 140 -50 0 -54 2 -77 38 -42 62
-75 133 -99 212 -31 99 -33 283 -5 375 90 292 338 475 612 452 301 -26 544
-314 544 -647 0 -247 -146 -490 -355 -593 -138 -68 -195 -38 -195 102 l0 70
53 15 c93 27 172 100 220 203 20 45 22 62 22 253 0 174 -3 210 -17 236 -26 47
-83 92 -125 99 -21 4 -51 11 -66 17 -38 15 -49 1 -45 -58 l3 -49 53 3 c47 3
55 0 83 -27 l31 -31 -4 -197 c-3 -195 -3 -199 -30 -244 -50 -86 -125 -132
-213 -132 -71 1 -128 27 -180 85 -63 71 -75 118 -75 305 0 216 16 247 122 241
l53 -3 3 43 c4 48 -12 77 -37 66 -9 -3 -36 -10 -60 -15 -68 -14 -110 -45 -137
-103 -22 -48 -24 -63 -24 -226 0 -236 17 -296 107 -381 52 -49 91 -73 141 -88
l42 -12 0 -82 c0 -66 5 -92 23 -127 101 -198 470 -12 617 314 52 113 64 178
64 326 0 125 -3 142 -33 230 -41 121 -96 215 -174 294 -90 91 -193 153 -303
182 -62 16 -242 18 -289 3z m-211 -1248 c25 -28 17 -72 -16 -90 -24 -14 -28
-14 -47 3 -25 23 -27 63 -4 88 21 23 45 23 67 -1z"/>
<path d="M1100 2680 l0 -70 -60 0 -60 0 0 -45 0 -45 60 0 60 0 0 -70 0 -70 40
0 39 0 3 68 3 67 63 3 62 3 0 44 0 45 -65 0 -65 0 0 70 0 70 -40 0 -40 0 0
-70z"/>
<path d="M2010 2409 l0 -262 128 5 c138 5 179 19 230 77 68 76 83 209 35 308
-50 102 -114 132 -280 133 l-113 0 0 -261z m272 131 c44 -36 62 -85 56 -152
-9 -87 -62 -134 -166 -144 l-62 -7 0 167 0 166 68 0 c60 0 71 -3 104 -30z"/>
<path d="M3168 2631 c-2 -22 -2 -45 0 -50 2 -6 31 -11 68 -11 l64 0 0 -210 0
-210 45 0 45 0 0 210 0 210 65 0 65 0 0 50 0 50 -174 0 -174 0 -4 -39z"/>
<path d="M2564 2511 c-86 -52 -117 -178 -68 -274 73 -141 274 -122 325 30 14
43 7 140 -12 173 -21 37 -56 69 -84 80 -44 17 -127 12 -161 -9z m150 -102 c56
-67 13 -179 -69 -179 -26 0 -74 51 -81 85 -19 103 87 170 150 94z"/>
<path d="M2968 2510 c-95 -50 -121 -210 -49 -300 69 -86 175 -93 258 -16 l33
29 -35 24 -34 23 -35 -21 c-68 -40 -136 3 -136 85 0 38 19 81 44 98 19 13 71
9 94 -8 23 -16 44 -13 75 10 15 11 16 18 8 34 -32 59 -148 81 -223 42z"/>
<path d="M3530 2389 c0 -156 9 -193 58 -228 40 -28 87 -27 128 4 39 30 44 31
44 5 0 -17 7 -20 45 -20 l45 0 0 184 0 183 -37 6 c-20 4 -40 4 -45 1 -4 -3 -8
-58 -8 -123 0 -99 -3 -122 -17 -139 -27 -32 -64 -37 -96 -12 -27 21 -27 22
-27 148 l0 127 -45 1 -45 2 0 -139z"/>
<path d="M3927 2524 c-4 -4 -7 -90 -7 -191 l0 -183 44 0 43 0 5 115 c4 103 7
117 28 140 13 13 38 28 57 31 25 5 33 11 33 28 0 11 3 31 6 44 6 20 3 22 -30
22 -26 0 -44 -7 -62 -25 -31 -31 -34 -31 -34 -2 0 20 -6 23 -38 25 -21 2 -41
-1 -45 -4z"/>
<path d="M4196 2523 c-3 -3 -6 -89 -6 -190 l0 -183 45 0 45 0 0 119 c0 105 2
121 21 145 15 19 30 26 54 26 56 0 65 -24 65 -167 l0 -123 45 0 45 0 0 123 c0
156 -6 191 -40 227 -24 26 -36 30 -78 30 -34 0 -57 -6 -75 -20 -30 -24 -37
-25 -37 -5 0 8 -3 16 -7 16 -45 7 -71 7 -77 2z"/>
</g>
</svg>
